# xmcd CD database file
#
# Track frame offsets:
#	150
#	26526
#	57806
#	104011
#	141501
#	170841
#	194636
#	232331
#	256891
#	291813
#	332621
#
# Disc length: 4754 seconds
#
# Revision: 1
# Processed by: cddbd v1.5.2PL0 Copyright (c) Steve Scherf et al.
# Submitted via: CDex 1.77
#
DISCID=af12900b
DTITLE=Musica Jazz (Magazine) - Cecil Taylor - The glorious step
DYEAR=2018
DGENRE=Jazz
TTITLE0=Pots
TTITLE1=Bulbs
TTITLE2=Mixed
TTITLE3=Love for sale
TTITLE4=Luhya! The glorious step
TTITLE5=African Violets
TTITLE6=Of what
TTITLE7=Wallering
TTITLE8=Toll
TTITLE9=Excursion on a wobby rail
TTITLE10=Song
EXTD=YEAR: 2018
EXTT0=
EXTT1=
EXTT2=
EXTT3=
EXTT4=
EXTT5=
EXTT6=
EXTT7=
EXTT8=
EXTT9=
EXTT10=
PLAYORDER=
